<svg width="430" height="112" viewBox="0 0 430 112" fill="none" xmlns="http://www.w3.org/2000/svg">
<path d="M390.903 92.1099C369.431 92.1099 358.207 80.7639 359.305 63.3179H366.869C366.381 77.5919 375.531 85.6439 390.537 85.6439C404.811 85.6439 415.669 79.6659 415.669 65.8799C415.669 59.2919 413.107 53.0699 395.173 48.3119C377.361 43.5539 369.553 37.2099 369.553 25.3759C369.553 9.27193 383.339 0.731934 400.419 0.731934C417.865 0.731934 429.577 10.7359 429.089 26.7179H421.403C421.769 14.8839 413.107 7.31993 399.809 7.31993C387.365 7.31993 377.727 13.1759 377.727 24.5219C377.727 32.6959 382.851 37.5759 398.345 41.6019C418.963 46.9699 423.721 54.8999 423.721 64.9039C423.721 81.9839 410.301 92.1099 390.903 92.1099Z" fill="#222222"/>
<path d="M311.039 90.8899L312.381 84.5459H324.215C335.073 84.5459 339.465 79.4219 341.783 68.5639L355.569 1.9519H363.011L349.103 69.2959C345.687 86.0099 337.147 90.8899 324.459 90.8899H311.039Z" fill="#222222"/>
<path d="M72.4307 62.7266C71.1708 81.1144 56.9191 92.1102 34.3369 92.1104C13.8318 92.1104 1.39641 82.9451 0 67.5859C6.42106 66.939 13.5349 66.3078 21.416 65.7021C22.5997 71.5975 27.7118 75.1523 35.3125 75.1523C44.2184 75.1523 49.0986 71.614 49.0986 64.5381C49.0986 64.314 49.0896 64.0958 49.0762 63.8828C56.3614 63.4739 64.1353 63.087 72.4307 62.7266ZM45.5605 0.854492C65.4464 0.85453 77.768 12.1999 77.1582 28.3037H55.1982C55.6861 21.7159 51.4163 17.5684 43.6084 17.5684C36.7765 17.5684 32.2629 20.8619 32.2627 26.5957C32.2627 31.2317 36.2884 33.5501 45.1943 35.7461C56.777 38.4714 63.9451 41.7681 68.0176 46.3574C45.186 44.323 26.4461 42.2634 11.0645 40.2539C9.55381 37.3702 8.83887 34.073 8.83887 30.2559C8.83895 11.346 24.5766 0.854492 45.5605 0.854492Z" fill="#533AFD"/>
<path d="M91.2188 90.8896H70.7227L76.5918 62.5498C83.1609 62.2771 90.0471 62.0207 97.2656 61.7832L91.2188 90.8896ZM134.163 90.8896H113.545L119.679 61.1357C126.378 60.9675 133.328 60.8144 140.538 60.6777L134.163 90.8896ZM102.931 34.7695H103.906C108.054 28.0596 116.473 23.7901 124.646 23.79C135.388 23.79 146.36 30.5614 142.377 51.873C135.164 51.4257 128.209 50.9751 121.503 50.5186C121.776 44.0245 119.096 40.3818 112.935 40.3818C107.593 40.3819 102.892 43.4299 100.395 49.0059C93.1884 48.4636 86.3071 47.9184 79.7363 47.3691L89.1445 1.95215H109.763L102.931 34.7695Z" fill="#533AFD"/>
<path d="M160.508 90.8896H140.013L146.356 60.5713C153.029 60.4552 159.917 60.3538 167.029 60.2666L160.508 90.8896ZM168.49 53.4053C161.481 53.0162 154.687 52.622 148.103 52.2236L153.798 25.0098H174.538L168.49 53.4053ZM168.072 0C174.66 2.18521e-05 178.32 3.5382 178.32 8.78418C178.32 14.518 173.684 18.4218 166.608 18.4219C160.142 18.4219 156.36 14.8837 156.36 9.6377C156.361 3.90386 160.996 0 168.072 0Z" fill="#533AFD"/>
<path d="M192.483 90.8896H172.109L178.562 60.1387C185.179 60.0747 191.979 60.0245 198.969 59.9863L192.483 90.8896ZM221.886 16.2256H215.176C210.54 16.2256 208.099 17.4458 207.123 21.3496L206.392 25.0098H218.835L215.419 41.4795H202.854L200.005 55.0488C193.103 54.7116 186.386 54.3689 179.847 54.0225L182.479 41.4795H172.598L176.014 25.0098H185.896L187.481 17.6895C189.434 7.92972 196.266 1.95215 209.808 1.95215H224.936L221.886 16.2256Z" fill="#533AFD"/>
<path d="M221.489 59.9111C228.122 59.9025 234.911 59.9054 241.86 59.9199L239.879 69.2959C239.025 73.3219 240.977 74.2979 244.759 74.2979H251.347L247.931 90.8896H234.999C221.579 90.8896 216.577 83.448 219.017 71.6143L221.489 59.9111ZM249.15 25.0098H261.717L258.301 41.6016H245.734L242.486 56.959C235.601 56.6737 228.872 56.3852 222.297 56.0908L225.36 41.6016H214.137L217.553 25.0098H228.776L232.437 7.56348L253.177 5.7334L249.15 25.0098Z" fill="#533AFD"/>
<path d="M266.129 60.0156C271.986 60.0494 277.948 60.0906 284.018 60.1406L284.654 66.8564H285.509L288.39 60.1787C294.75 60.2348 301.226 60.2986 307.821 60.373L290.511 92.1104C283.435 104.92 275.871 111.264 256.717 111.264H247.2L250.616 94.3057H255.984C261.962 94.3057 266.111 92.8418 268.795 87.7178L270.503 84.5459L266.129 60.0156ZM308.364 59.376C301.799 59.1639 295.35 58.9476 289.017 58.7275L290.511 55.2656L303.931 25.0098H327.11L308.364 59.376ZM283.557 55.2656L283.867 58.5459C277.718 58.3281 271.68 58.1067 265.749 57.8818L259.889 25.0098H280.873L283.557 55.2656Z" fill="#533AFD"/>
</svg>
